<svg width="49" height="24" viewBox="0 0 49 24" fill="none" xmlns="http://www.w3.org/2000/svg">
<path fill-rule="evenodd" clip-rule="evenodd" d="M31.9855 18.504C32.8541 18.504 33.4528 18.363 34.7444 17.5877L33.8689 15.5141C33.5134 15.6728 33.2105 15.72 32.7204 15.72C31.8964 15.72 31.4286 15.24 31.4286 14.232V8.18401H33.775V5.71201H31.4286V3H28.2214V14.544C28.2214 17.16 29.5354 18.504 31.9855 18.504ZM13.7365 14.3034C13.3579 17.0154 11.3534 18.5275 8.16835 18.5275C4.64926 18.5275 2.08789 16.1514 2.08789 12.1434V11.9514C2.08789 7.99146 4.6938 5.42344 8.07926 5.42344C11.0861 5.42344 13.7588 7.31942 13.7588 11.8074V12.7674H5.362C5.45108 14.8554 6.4979 16.0554 8.25744 16.0554C9.74971 16.0554 10.4847 15.3594 10.6852 14.3034H13.7365ZM8.07926 7.82344C6.63155 7.82344 5.65154 8.85542 5.40654 10.6314H10.6183C10.507 8.73545 9.61608 7.82344 8.07926 7.82344ZM18.6125 18.2635H15.383V5.71143H18.6125V7.70343C19.1916 6.45542 20.4612 5.42344 22.3989 5.42344C24.693 5.42344 26.3189 6.91143 26.3189 10.2714V18.2635H23.0894V10.7754C23.0894 9.07145 22.4657 8.25542 21.0403 8.25542C19.6594 8.25542 18.6125 9.16743 18.6125 11.0154V18.2635ZM40.6153 22.5357H37.4972L39.5462 16.9917L34.9135 5.71172H38.3881L41.2167 13.2477L43.8226 5.71172H46.9185L40.6153 22.5357Z" fill="white"/>
</svg>
